<svg viewBox="0 0 400 250" xmlns="http://www.w3.org/2000/svg" role="img" aria-hidden="true">
  <defs>
    <linearGradient id="bg-lab-light" x1="0" y1="0" x2="1" y2="1">
      <stop offset="0%" stop-color="#f5f3ff"/>
      <stop offset="100%" stop-color="#ecfeff"/>
    </linearGradient>
    <linearGradient id="stroke-lab-light" x1="0" y1="0" x2="1" y2="0">
      <stop offset="0%" stop-color="#7c3aed"/>
      <stop offset="100%" stop-color="#0891b2"/>
    </linearGradient>
    <radialGradient id="glowV-lab-light" cx="50%" cy="50%" r="50%">
      <stop offset="0%" stop-color="#7c3aed" stop-opacity="0.14"/>
      <stop offset="100%" stop-color="#7c3aed" stop-opacity="0"/>
    </radialGradient>
    <radialGradient id="glowC-lab-light" cx="50%" cy="50%" r="50%">
      <stop offset="0%" stop-color="#0891b2" stop-opacity="0.14"/>
      <stop offset="100%" stop-color="#0891b2" stop-opacity="0"/>
    </radialGradient>
    <pattern id="grid-lab-light" width="22" height="22" patternUnits="userSpaceOnUse">
      <circle cx="1" cy="1" r="1" fill="rgba(15,23,42,0.06)"/>
    </pattern>
  </defs>

  <rect width="400" height="250" fill="url(#bg-lab-light)"/>
  <rect width="400" height="250" fill="url(#grid-lab-light)"/>
  <circle cx="90" cy="200" r="130" fill="url(#glowV-lab-light)"/>
  <circle cx="320" cy="60" r="140" fill="url(#glowC-lab-light)"/>

  <!-- forme nuage en arrière-plan -->
  <path d="M110 96 a26 26 0 0 1 50 -10 a20 20 0 0 1 34 14 a22 22 0 0 1 -4 44 H96 a20 20 0 0 1 -6 -39 Z"
    fill="none" stroke="rgba(15,23,42,0.18)" stroke-width="2"/>

  <!-- pipeline de conteneurs -->
  <g stroke="url(#stroke-lab-light)" stroke-width="2.5" fill="rgba(255,255,255,0.6)">
    <rect x="56" y="150" width="52" height="52" rx="8"/>
    <rect x="140" y="150" width="52" height="52" rx="8"/>
    <rect x="224" y="150" width="52" height="52" rx="8"/>
    <rect x="308" y="150" width="52" height="52" rx="8"/>
  </g>

  <!-- icônes conteneur (caisses) -->
  <g stroke="rgba(15,23,42,0.4)" stroke-width="1.6" fill="none">
    <path d="M66 168 L82 160 L98 168 L82 176 Z"/>
    <line x1="82" y1="176" x2="82" y2="190"/>
    <path d="M150 168 L166 160 L182 168 L166 176 Z"/>
    <line x1="166" y1="176" x2="166" y2="190"/>
    <path d="M234 168 L250 160 L266 168 L250 176 Z"/>
    <line x1="250" y1="176" x2="250" y2="190"/>
    <path d="M318 168 L334 160 L350 168 L334 176 Z"/>
    <line x1="334" y1="176" x2="334" y2="190"/>
  </g>

  <!-- flèches de pipeline -->
  <g stroke="#0891b2" stroke-width="2.5" fill="none" stroke-linecap="round">
    <line x1="108" y1="176" x2="136" y2="176"/>
    <polygon points="136,176 128,171 128,181" fill="#0891b2" stroke="none"/>
    <line x1="192" y1="176" x2="220" y2="176"/>
    <polygon points="220,176 212,171 212,181" fill="#0891b2" stroke="none"/>
    <line x1="276" y1="176" x2="304" y2="176"/>
    <polygon points="304,176 296,171 296,181" fill="#7c3aed" stroke="none"/>
  </g>

  <!-- coche sécurité sur le dernier conteneur -->
  <circle cx="334" cy="176" r="15" fill="rgba(124,58,237,0.12)" stroke="#7c3aed" stroke-width="2"/>
  <path d="M327 176 L332 182 L342 168" fill="none" stroke="#1e1b4b" stroke-width="2.5" stroke-linecap="round" stroke-linejoin="round" opacity="0.9"/>
</svg>
